<svg width="331" height="265" viewBox="0 0 331 265" fill="none" xmlns="http://www.w3.org/2000/svg">
<g opacity="0.5">
<path d="M217.142 161.97C189.187 123.937 154.094 102.311 138.753 113.518L68.4403 165.209C53.0993 176.48 63.3266 216.452 91.2814 254.485C119.236 292.518 154.35 314.145 169.691 302.959L240.004 251.268C255.345 239.997 245.118 200.025 217.142 161.97Z" fill="#407BFF"/>
<path opacity="0.4" d="M240.02 251.226C255.361 239.949 245.128 199.97 217.165 161.931C189.202 123.891 154.098 102.197 138.757 113.474C123.416 124.751 133.648 164.73 161.611 202.769C189.574 240.808 224.679 262.503 240.02 251.226Z" fill="white"/>
<path d="M133.299 223.675C119.322 204.648 101.765 193.846 94.0943 199.449L3.68866 265.885C-3.98186 271.531 1.13182 291.453 15.1092 310.629C29.0866 329.805 46.6436 340.459 54.3141 334.855L144.72 268.399C152.305 262.688 147.191 242.703 133.299 223.675Z" fill="#407BFF"/>
<path opacity="0.3" d="M144.614 268.313L120.302 286.19C98.6765 267.143 81.4156 243.654 69.6982 217.326L94.0094 199.449C101.68 193.803 119.237 204.648 133.214 223.675C147.192 242.702 152.284 262.667 144.614 268.313Z" fill="black"/>
<path opacity="0.3" d="M144.642 268.267C152.312 262.629 147.196 242.639 133.214 223.62C119.233 204.6 101.68 193.753 94.0101 199.391C86.3396 205.03 91.4558 225.019 105.437 244.039C119.419 263.059 136.971 273.906 144.642 268.267Z" fill="white"/>
<path opacity="0.3" d="M54.2288 334.77C46.5583 340.395 29.0014 329.55 15.024 310.544C1.0466 291.538 -4.15231 271.531 3.60344 265.799C11.3592 260.068 28.8309 271.019 42.8083 290.025C56.7857 309.031 61.8994 329.124 54.2288 334.77Z" fill="black"/>
<path opacity="0.3" d="M169.716 302.905C185.057 291.628 174.824 251.649 146.861 213.61C118.898 175.57 83.7937 153.876 68.4528 165.153C53.112 176.43 63.3443 216.409 91.3073 254.448C119.27 292.487 154.375 314.182 169.716 302.905Z" fill="black"/>
<path d="M275.651 118.973C227.37 53.2833 166.773 15.8256 140.267 35.3002L101.339 63.9581C74.8542 83.4114 92.5177 152.446 140.778 218.136C189.038 283.825 249.635 321.283 276.056 301.808L315.048 273.15C341.596 253.676 323.933 184.662 275.651 118.973Z" fill="#407BFF"/>
<path opacity="0.3" d="M276.148 301.74C302.639 282.266 284.975 213.237 236.695 147.56C188.415 81.8827 127.801 44.4273 101.31 63.901C74.8191 83.3748 92.4827 152.403 140.763 218.081C189.043 283.758 249.657 321.213 276.148 301.74Z" fill="black"/>
<path opacity="0.4" d="M315.11 273.099C341.601 253.625 323.937 184.597 275.657 118.919C227.377 53.242 166.763 15.7866 140.272 35.2603C113.781 54.7341 131.445 123.763 179.725 189.44C228.005 255.117 288.619 292.573 315.11 273.099Z" fill="white"/>
<path d="M333.585 76.3375C305.631 38.3045 270.517 16.6779 255.176 27.8854L184.863 79.5548C169.522 90.8262 179.749 130.819 207.704 168.852C235.658 206.885 270.772 228.512 286.113 217.305L356.426 165.635C371.938 154.364 361.625 114.37 333.585 76.3375Z" fill="#407BFF"/>
<path opacity="0.3" d="M286.206 217.275C301.547 205.998 291.315 166.019 263.352 127.98C235.389 89.9405 200.284 68.2456 184.943 79.5228C169.602 90.8 179.835 130.779 207.798 168.818C235.761 206.857 270.865 228.552 286.206 217.275Z" fill="black"/>
<path opacity="0.4" d="M356.519 165.579C371.859 154.302 361.627 114.323 333.664 76.2836C305.701 38.2444 270.596 16.5495 255.256 27.8267C239.915 39.1039 250.147 79.0828 278.11 117.122C306.073 155.161 341.178 176.856 356.519 165.579Z" fill="white"/>
</g>
</svg>
