<svg width="542" height="264" viewBox="0 0 542 264" fill="none" xmlns="http://www.w3.org/2000/svg">
<g opacity="0.7">
<path d="M175.543 252.933C175.543 252.933 171.091 254.87 176.519 264.294C181.946 273.717 185.61 278.335 185.61 278.335C185.61 278.335 186.6 280.503 184.728 280.98C182.856 281.457 178.658 280.98 177.935 283.329C177.212 285.677 179.041 287.947 182.676 289.753C186.311 291.56 194.13 295.809 194.838 296.199C195.547 296.59 196.284 297.587 195.026 298.093C193.769 298.599 184.483 300.058 185.436 304.438C186.39 308.817 197.346 312.178 198.538 312.575C199.731 312.972 200.034 313.442 199.984 314.085C199.933 314.729 196.746 314.931 194.116 315.451C191.485 315.972 188.522 317.041 189.281 319.52C190.04 321.999 196.681 326.956 212.226 327.679L219.452 327.549L223.066 321.254C229.982 307.314 228.883 299.104 227.084 297.233C225.284 295.361 222.914 297.428 221.18 299.48C219.445 301.533 217.732 304.207 217.14 303.946C216.547 303.686 216.273 303.188 216.504 301.959C216.735 300.731 219.12 289.522 215.781 286.559C212.442 283.596 206.618 291.032 205.584 291.856C204.551 292.68 204.009 291.56 204.016 290.765C204.023 289.97 204.103 281.067 204.291 277.034C204.479 273.002 203.481 270.299 200.981 269.764C198.481 269.229 196.927 273.139 195.626 274.563C194.325 275.986 192.887 274.05 192.887 274.05C192.887 274.05 190.632 268.601 185.032 259.278C179.431 249.956 175.493 253.006 175.493 253.006" fill="#EBEBEB"/>
<path d="M219.901 329.247C215.81 322.382 208.757 310.06 202.643 299.516C196.529 288.973 190.994 279.434 186.947 272.547C184.916 269.114 183.283 266.332 182.141 264.402L180.833 262.183L180.501 261.605L180.392 261.403C180.392 261.403 180.443 261.468 180.522 261.591C180.602 261.714 180.725 261.916 180.877 262.162L182.213 264.33C183.377 266.238 185.039 269.005 187.084 272.438C191.167 279.303 196.732 288.835 202.838 299.372C208.945 309.908 215.984 322.252 220.038 329.139" fill="#E0E0E0"/>
<path fill-rule="evenodd" clip-rule="evenodd" d="M405.64 67.4609C405.825 69.453 405.74 71.4609 405.387 73.4302L409.767 76.8267L405.9 85.1374L400.48 83.9666C399.199 85.5067 397.716 86.8678 396.072 88.0136L396.795 93.5058L388.173 96.6495L385.182 91.9955C383.187 92.1738 381.177 92.0863 379.205 91.7353L375.787 96.1147L367.469 92.2412L368.64 86.8212C367.102 85.5417 365.743 84.0614 364.6 82.4201L359.101 83.1428L355.957 74.5286L360.611 71.544C360.426 69.5519 360.511 67.5441 360.864 65.5748L356.499 62.1493L360.365 53.8387L365.785 55.0094C367.065 53.4676 368.548 52.1062 370.193 50.9625L369.471 45.463L378.092 42.3194L381.106 46.9733C383.101 46.795 385.11 46.8825 387.082 47.2335L390.471 42.8469L398.789 46.7204L397.619 52.1332C399.155 53.4171 400.513 54.8995 401.658 56.5414L407.158 55.8188L410.301 64.433L405.64 67.4393V67.4609ZM392.517 66.4853C391.848 64.6604 390.654 63.0744 389.085 61.9276C387.515 60.7808 385.642 60.1247 383.7 60.042C381.758 59.9593 379.835 60.4537 378.174 61.4629C376.513 62.4721 375.188 63.9508 374.367 65.7123C373.546 67.4738 373.265 69.4392 373.56 71.3603C373.854 73.2814 374.712 75.0721 376.023 76.5063C377.335 77.9405 379.042 78.954 380.929 79.4187C382.817 79.8835 384.799 79.7787 386.627 79.1176C387.845 78.6779 388.965 78.0017 389.921 77.1279C390.877 76.2541 391.651 75.2 392.198 74.026C392.746 72.8521 393.055 71.5816 393.11 70.2875C393.165 68.9934 392.963 67.7012 392.517 66.4853Z" fill="#E0E0E0"/>
<path fill-rule="evenodd" clip-rule="evenodd" d="M452.18 96.2809C452.327 97.8606 452.259 99.4529 451.978 101.014L455.454 103.703L452.389 110.293L448.097 109.361C447.08 110.58 445.906 111.659 444.606 112.57L445.163 116.906L438.334 119.399L435.956 115.706C434.376 115.849 432.784 115.781 431.223 115.504L428.534 118.973L421.951 115.909L422.876 111.616C421.658 110.601 420.581 109.427 419.674 108.125L415.338 108.682L412.823 101.896L416.516 99.5112C416.373 97.9338 416.441 96.3443 416.719 94.785L413.25 92.0966L416.314 85.5059L420.607 86.4382C421.622 85.2176 422.796 84.1385 424.097 83.2295L423.541 78.8935L430.37 76.4003L432.747 80.0931C434.327 79.9501 435.919 80.0181 437.481 80.2955L440.169 76.8195L446.753 79.8908L445.828 84.1834C447.046 85.1989 448.122 86.3728 449.029 87.6739L453.365 87.1175L455.851 93.9394L452.158 96.317L452.18 96.2809ZM441.788 95.5582C441.267 94.1041 440.325 92.8375 439.083 91.9191C437.841 91.0008 436.354 90.4721 434.811 90.4C433.268 90.328 431.739 90.7159 430.416 91.5145C429.094 92.3131 428.039 93.4865 427.384 94.8857C426.73 96.285 426.506 97.8471 426.741 99.3739C426.975 100.901 427.658 102.323 428.703 103.461C429.747 104.6 431.106 105.402 432.607 105.766C434.108 106.131 435.684 106.042 437.134 105.509C439.074 104.802 440.654 103.354 441.526 101.483C442.399 99.6112 442.493 97.4699 441.788 95.5293V95.5582Z" fill="#EBEBEB"/>
<path fill-rule="evenodd" clip-rule="evenodd" d="M405.185 124.299C405.305 125.642 405.247 126.996 405.011 128.324L407.96 130.608L405.358 136.215L401.745 135.421C400.88 136.456 399.881 137.372 398.775 138.145L399.245 141.852L393.463 143.97L391.44 140.833C390.096 140.955 388.742 140.894 387.415 140.653L385.131 143.608L379.53 141L380.318 137.386C379.283 136.524 378.366 135.527 377.593 134.423L373.893 134.893L371.776 129.112L374.912 127.088C374.792 125.745 374.851 124.391 375.086 123.063L372.13 120.779L374.739 115.179L378.352 115.966C379.217 114.931 380.216 114.014 381.322 113.242L380.853 109.542L386.634 107.424L388.657 110.561C390.001 110.441 391.355 110.499 392.683 110.734L394.966 107.779L400.567 110.387L399.779 114.037C400.815 114.902 401.731 115.901 402.504 117.007L406.204 116.53L408.321 122.311L405.185 124.299ZM396.339 123.656C395.885 122.427 395.076 121.361 394.016 120.591C392.956 119.822 391.691 119.384 390.383 119.333C389.074 119.282 387.779 119.62 386.662 120.304C385.545 120.989 384.656 121.989 384.107 123.178C383.558 124.368 383.374 125.693 383.578 126.987C383.782 128.281 384.365 129.486 385.254 130.449C386.142 131.411 387.296 132.089 388.569 132.397C389.842 132.704 391.178 132.627 392.408 132.176C394.055 131.569 395.395 130.333 396.132 128.74C396.869 127.146 396.944 125.326 396.339 123.677V123.656Z" fill="#F5F5F5"/>
<path d="M162.239 212.587H185.407V209.414H162.239V212.587Z" fill="#E0E0E0"/>
<path d="M162.239 207.225H185.407V204.052H162.239V207.225Z" fill="#E0E0E0"/>
<path d="M175.384 218.339H185.407V215.167H175.384V218.339Z" fill="#E0E0E0"/>
<path fill-rule="evenodd" clip-rule="evenodd" d="M212.753 154.159C213.28 153.111 213.946 152.138 214.733 151.269L213.627 148.233L218.122 145.343L220.428 147.605C221.537 147.245 222.689 147.036 223.853 146.983L225.219 144.056L230.437 145.184V148.414C231.488 148.939 232.461 149.608 233.327 150.401L236.363 149.296L239.253 153.783L236.991 156.096C237.353 157.204 237.565 158.357 237.62 159.521L240.511 160.887L239.383 166.112H236.153C235.624 167.159 234.958 168.132 234.173 169.003L235.271 172.038L230.784 174.929L228.507 172.717C227.398 173.074 226.246 173.283 225.082 173.339L223.716 176.266L218.498 175.131L218.462 171.908C217.416 171.374 216.444 170.706 215.571 169.921L212.536 171.026L209.646 166.531L211.907 164.226C211.551 163.116 211.342 161.965 211.286 160.801L208.359 159.435L209.494 154.217H212.724L212.753 154.159ZM218.917 158.705C218.677 159.813 218.771 160.967 219.187 162.021C219.602 163.075 220.322 163.983 221.253 164.629C222.185 165.274 223.287 165.629 224.42 165.649C225.553 165.668 226.667 165.351 227.62 164.738C228.573 164.124 229.323 163.242 229.774 162.202C230.226 161.163 230.359 160.013 230.157 158.897C229.955 157.782 229.427 156.752 228.639 155.937C227.851 155.122 226.84 154.558 225.732 154.318C224.997 154.158 224.237 154.144 223.496 154.278C222.755 154.412 222.048 154.69 221.415 155.098C220.782 155.505 220.235 156.033 219.807 156.652C219.378 157.271 219.076 157.969 218.917 158.705Z" fill="#206B8E"/>
<path fill-rule="evenodd" clip-rule="evenodd" d="M204.298 130.376C204.556 129.871 204.879 129.403 205.259 128.982L204.724 127.536L206.892 126.127L208.005 127.225C208.545 127.051 209.107 126.949 209.674 126.922L210.332 125.477L212.868 126.026V127.594C213.371 127.852 213.838 128.175 214.256 128.555L215.701 128.02L217.103 130.188L216.077 131.323C216.252 131.864 216.354 132.425 216.381 132.992L217.826 133.65L217.277 136.187H215.716C215.458 136.691 215.132 137.158 214.747 137.574L215.289 139.019L213.121 140.421L212.001 139.323C211.463 139.497 210.904 139.599 210.339 139.626L209.674 141.072L207.145 140.523V138.962C206.638 138.704 206.169 138.378 205.75 137.993L204.305 138.535L202.896 136.367L203.994 135.247C203.82 134.709 203.718 134.15 203.691 133.585L202.245 132.92L202.794 130.391H204.363L204.298 130.376ZM207.289 132.58C207.172 133.118 207.217 133.679 207.418 134.191C207.619 134.703 207.967 135.144 208.419 135.459C208.871 135.773 209.406 135.946 209.956 135.956C210.506 135.966 211.047 135.813 211.511 135.516C211.974 135.218 212.338 134.79 212.558 134.286C212.778 133.781 212.843 133.223 212.746 132.681C212.648 132.14 212.392 131.639 212.01 131.243C211.628 130.847 211.137 130.573 210.599 130.456C209.879 130.299 209.125 130.435 208.505 130.833C207.884 131.231 207.447 131.86 207.289 132.58Z" fill="#206B8E"/>
<path d="M189.078 150.315C189.078 150.315 189.078 150.235 189.078 150.083C189.118 149.866 189.186 149.655 189.281 149.455C189.628 148.699 190.225 148.087 190.972 147.72C191.458 147.485 191.99 147.359 192.53 147.35C193.071 147.342 193.606 147.451 194.1 147.67C194.594 147.889 195.034 148.213 195.39 148.62C195.746 149.026 196.009 149.506 196.161 150.024C196.314 150.543 196.351 151.088 196.271 151.622C196.191 152.157 195.996 152.667 195.698 153.119C195.401 153.57 195.009 153.951 194.55 154.236C194.091 154.52 193.575 154.701 193.039 154.766C192.422 154.848 191.795 154.771 191.216 154.543C190.637 154.316 190.125 153.945 189.729 153.465C189.196 152.826 188.905 152.021 188.905 151.189C188.904 150.967 188.931 150.747 188.984 150.531C188.984 150.387 189.042 150.315 189.057 150.315C189.071 150.315 189.02 150.633 189.057 151.182C189.104 151.963 189.412 152.706 189.931 153.292C190.347 153.771 190.889 154.124 191.495 154.312C192.101 154.5 192.747 154.515 193.361 154.356C193.975 154.197 194.533 153.87 194.971 153.411C195.409 152.952 195.711 152.381 195.842 151.76C195.971 151.143 195.927 150.502 195.714 149.909C195.502 149.315 195.129 148.792 194.638 148.397C194.146 148.003 193.555 147.751 192.93 147.671C192.305 147.591 191.669 147.686 191.095 147.944C190.381 148.263 189.794 148.81 189.425 149.498C189.172 149.975 189.114 150.315 189.078 150.315Z" fill="#263238"/>
<path d="M185.241 147.424C185.076 147.453 184.909 147.465 184.742 147.46L183.239 147.503L183.297 147.46C183.123 148.306 182.899 149.397 182.625 150.712L182.574 150.604L184.395 151.442H184.46V151.514C184.499 152.227 184.633 152.932 184.858 153.61V153.682L184.807 153.733L183.405 155.178V155.012L185.212 157.794L185.039 157.736L186.917 157.014L187.011 156.978L187.076 157.043C187.605 157.518 188.193 157.924 188.825 158.25L188.912 158.293V158.394C188.912 159.016 188.912 159.695 188.912 160.396L188.775 160.237L192.027 160.96L191.832 161.053L192.677 159.24L192.721 159.138H192.829C193.536 159.105 194.236 158.979 194.91 158.763L195.019 158.727L195.091 158.806C195.546 159.24 196.03 159.724 196.536 160.208H196.305L199.102 158.409L199.022 158.625L198.336 156.739L198.299 156.631L198.372 156.551C198.849 156.027 199.255 155.441 199.579 154.81L199.745 154.708H200.749H201.754L201.573 154.86C201.804 153.762 202.043 152.692 202.296 151.615L202.397 151.825L200.583 150.972L200.482 150.929V150.813C200.453 150.106 200.326 149.405 200.106 148.732L200.07 148.624L200.15 148.551L201.559 147.106V147.323C200.942 146.359 200.345 145.427 199.767 144.526L199.969 144.598L198.083 145.278L197.982 145.314L197.909 145.249C197.386 144.767 196.8 144.359 196.168 144.035L196.081 143.991V143.89C196.081 143.167 196.081 142.532 196.081 141.881L196.204 142.033L192.966 141.31L193.125 141.231C192.822 141.867 192.54 142.467 192.272 143.045L192.236 143.124H192.15C191.438 143.156 190.734 143.28 190.054 143.493H189.982L189.931 143.442L188.486 141.997H188.623L185.812 143.775L185.848 143.673C186.115 144.396 186.332 145.046 186.513 145.567V145.603C186.034 146.14 185.605 146.721 185.234 147.337C185.234 147.337 185.234 147.294 185.284 147.214C185.34 147.091 185.403 146.97 185.472 146.853C185.739 146.375 186.059 145.929 186.426 145.523V145.581L185.703 143.702V143.644L185.761 143.601L188.536 141.78L188.609 141.737L188.674 141.794L190.119 143.196H189.989C190.69 142.963 191.419 142.827 192.157 142.792L192.041 142.871L192.879 141.043L192.923 140.942H193.038L196.29 141.664H196.406V141.787C196.406 142.438 196.406 143.102 196.406 143.796L196.319 143.652C196.979 143.987 197.591 144.407 198.141 144.902H197.967L199.853 144.179L199.983 144.129L200.056 144.251C200.641 145.155 201.241 146.087 201.862 147.034L201.935 147.157L201.833 147.258L200.431 148.703L200.475 148.515C200.701 149.218 200.834 149.946 200.872 150.683L200.764 150.524L202.585 151.37L202.722 151.435L202.686 151.579C202.462 152.642 202.224 153.747 201.963 154.824V154.969H201.812H200.814H199.817L199.976 154.867C199.652 155.571 199.234 156.227 198.733 156.819V156.624L199.456 158.51L199.506 158.654L199.383 158.734L196.565 160.533L196.442 160.613L196.334 160.504L194.889 159.095L195.076 159.138C194.375 159.367 193.646 159.5 192.908 159.536L193.06 159.427C192.771 160.063 192.475 160.685 192.215 161.249L192.15 161.379L192.02 161.343L188.775 160.62H188.637V160.49C188.637 159.767 188.637 159.102 188.637 158.481L188.724 158.625C188.067 158.284 187.457 157.859 186.91 157.361H187.069L185.183 158.04L185.067 158.083L185.002 157.982C184.381 156.999 183.781 156.067 183.217 155.185L183.16 155.091L183.239 155.019L184.648 153.574V153.704C184.43 153.001 184.304 152.272 184.273 151.536L184.338 151.63L182.524 150.77H182.451V150.69C182.755 149.382 183.001 148.298 183.174 147.453V147.424H183.225H184.706H185.089H185.241Z" fill="#263238"/>
<g opacity="0.8">
<path fill-rule="evenodd" clip-rule="evenodd" d="M212.753 154.159C213.28 153.111 213.946 152.138 214.733 151.269L213.627 148.233L218.122 145.343L220.428 147.605C221.537 147.245 222.689 147.036 223.853 146.983L225.219 144.056L230.437 145.184V148.414C231.488 148.939 232.461 149.608 233.327 150.401L236.363 149.296L239.253 153.783L236.991 156.096C237.353 157.204 237.565 158.357 237.62 159.521L240.511 160.887L239.383 166.112H236.153C235.624 167.159 234.958 168.132 234.173 169.003L235.271 172.038L230.784 174.929L228.507 172.717C227.398 173.074 226.246 173.283 225.082 173.339L223.716 176.266L218.498 175.131L218.462 171.908C217.416 171.374 216.444 170.706 215.571 169.921L212.536 171.026L209.646 166.531L211.907 164.226C211.551 163.116 211.342 161.965 211.286 160.801L208.359 159.435L209.494 154.217H212.724L212.753 154.159ZM218.917 158.705C218.677 159.813 218.771 160.967 219.187 162.021C219.602 163.075 220.322 163.983 221.253 164.629C222.185 165.274 223.287 165.629 224.42 165.649C225.553 165.668 226.667 165.351 227.62 164.738C228.573 164.124 229.323 163.242 229.774 162.202C230.226 161.163 230.359 160.013 230.157 158.897C229.955 157.782 229.427 156.752 228.639 155.937C227.851 155.122 226.84 154.558 225.732 154.318C224.997 154.158 224.237 154.144 223.496 154.278C222.755 154.412 222.048 154.69 221.415 155.098C220.782 155.505 220.235 156.033 219.807 156.652C219.378 157.271 219.076 157.969 218.917 158.705Z" fill="white"/>
</g>
<path d="M344.307 148.71C343.014 134.163 337.941 119.609 328.069 108.848C318.197 98.0875 303.13 91.6124 288.727 94.0406C274.324 96.4688 261.605 108.783 260.594 123.359C260.081 131.099 262.66 138.781 262.234 146.521C261.511 159.904 251.907 171.229 241.168 179.236C231.911 186.144 221.931 188.63 215.297 198.025C203.395 214.964 205.375 234.484 212.406 246.155C214.82 250.166 218.78 253.938 223.528 257.154C237.165 266.404 254.227 268.789 270.198 264.72C294.978 258.397 317.352 242.765 330.244 222.48C345.225 198.95 346.432 172.616 344.307 148.71Z" fill="#206B8E"/>
<g opacity="0.8">
<path d="M344.307 148.71C343.014 134.163 337.941 119.609 328.069 108.848C318.197 98.0875 303.13 91.6124 288.727 94.0406C274.324 96.4688 261.605 108.783 260.594 123.359C260.081 131.099 262.66 138.781 262.234 146.521C261.511 159.904 251.907 171.229 241.168 179.236C231.911 186.144 221.931 188.63 215.297 198.025C203.395 214.964 205.375 234.484 212.406 246.155C214.82 250.166 218.78 253.938 223.528 257.154C237.165 266.404 254.227 268.789 270.198 264.72C294.978 258.397 317.352 242.765 330.244 222.48C345.225 198.95 346.432 172.616 344.307 148.71Z" fill="white"/>
</g>
<path d="M240.034 252.478C240.6 252.478 241.06 252.019 241.06 251.452C241.06 250.885 240.6 250.426 240.034 250.426C239.467 250.426 239.008 250.885 239.008 251.452C239.008 252.019 239.467 252.478 240.034 252.478Z" fill="#206B8E"/>
<path fill-rule="evenodd" clip-rule="evenodd" d="M320.864 192.172C320.864 192.537 320.756 192.895 320.552 193.199C320.349 193.504 320.06 193.741 319.722 193.881C319.384 194.021 319.012 194.057 318.653 193.986C318.294 193.915 317.965 193.738 317.706 193.48C317.447 193.221 317.271 192.891 317.2 192.532C317.128 192.174 317.165 191.802 317.305 191.464C317.445 191.125 317.682 190.837 317.986 190.633C318.29 190.43 318.648 190.321 319.014 190.321C319.505 190.321 319.975 190.516 320.322 190.863C320.669 191.21 320.864 191.681 320.864 192.172Z" fill="#206B8E"/>
<path d="M291.177 123.677C291.744 123.677 292.203 123.218 292.203 122.651C292.203 122.084 291.744 121.625 291.177 121.625C290.61 121.625 290.151 122.084 290.151 122.651C290.151 123.218 290.61 123.677 291.177 123.677Z" fill="#206B8E"/>
<path d="M353.03 166.445H329.861V169.617H353.03V166.445Z" fill="#206B8E"/>
<path d="M339.884 172.183H329.861V175.355H339.884V172.183Z" fill="#206B8E"/>
<path d="M473.903 173.274C473.945 173.222 473.994 173.176 474.047 173.136L474.503 172.761L474.849 172.493L475.298 172.219L475.832 171.901L476.468 171.619C479.105 170.57 482.034 170.519 484.707 171.474C486.56 172.077 488.258 173.081 489.679 174.416C491.287 175.978 492.488 177.911 493.176 180.045C494.694 184.526 494.304 190.011 492.114 194.961C489.924 199.911 486.434 203.879 483.153 207.167C479.872 210.455 476.649 213.187 474.112 215.637C472.084 217.533 470.177 219.556 468.403 221.692C467.782 222.458 467.319 223.066 467.009 223.485L466.654 223.954C466.575 224.056 466.532 224.113 466.524 224.106C466.55 224.044 466.584 223.986 466.626 223.933C466.705 223.803 466.813 223.636 466.951 223.441C467.233 223.008 467.673 222.379 468.288 221.606C470.024 219.422 471.91 217.363 473.932 215.441C476.447 212.97 479.619 210.216 482.907 206.921C486.195 203.626 489.585 199.694 491.774 194.809C493.964 189.924 494.304 184.54 492.858 180.161C492.191 178.076 491.031 176.182 489.476 174.64C488.091 173.333 486.436 172.346 484.627 171.749C482.017 170.774 479.143 170.774 476.533 171.749C475.599 172.152 474.716 172.663 473.903 173.274Z" fill="#263238"/>
<path d="M414.124 292.102V269.099C414.124 260.948 419.58 255.419 426.409 255.333L496.566 254.458C497.682 254.445 498.79 254.653 499.825 255.071C500.861 255.488 501.803 256.107 502.597 256.892C503.392 257.676 504.023 258.61 504.454 259.64C504.884 260.67 505.107 261.775 505.108 262.892V291.683L414.124 292.102Z" fill="#206B8E"/>
<path d="M496.472 261.613H468.049V274.895H496.472V261.613Z" fill="#FAFAFA"/>
<path d="M459.139 291.545C459.038 291.545 458.951 283.408 458.951 273.37C458.951 263.333 459.038 255.195 459.139 255.195C459.24 255.195 459.327 263.333 459.327 273.37C459.327 283.408 459.24 291.545 459.139 291.545Z" fill="#263238"/>
<path d="M459.428 244.175C459.645 244.019 459.891 243.906 460.151 243.842C460.808 243.597 461.496 243.443 462.196 243.387C463.359 243.268 464.533 243.39 465.647 243.744C466.761 244.098 467.79 244.678 468.671 245.446C469.552 246.214 470.266 247.155 470.768 248.211C471.27 249.266 471.55 250.414 471.59 251.582C471.633 252.282 471.577 252.985 471.424 253.67C471.384 253.923 471.303 254.166 471.186 254.393C471.325 253.468 471.371 252.531 471.323 251.596C471.253 250.474 470.96 249.377 470.463 248.368C469.965 247.359 469.273 246.459 468.425 245.72C467.578 244.981 466.592 244.417 465.525 244.061C464.459 243.705 463.332 243.565 462.21 243.647C461.267 243.729 460.335 243.905 459.428 244.175Z" fill="#263238"/>
<path d="M424.61 255.499L459.139 162.578L484.1 174.43L454.81 261.613L424.61 255.499Z" fill="#206B8E"/>
<path opacity="0.4" d="M440.975 286.668C446.998 281.942 448.049 273.229 443.323 267.207C438.598 261.185 429.885 260.133 423.863 264.859C417.84 269.584 416.789 278.297 421.514 284.32C426.24 290.342 434.953 291.393 440.975 286.668Z" fill="black"/>
<path d="M447.088 276.327C450.364 269.167 447.216 260.706 440.056 257.429C432.895 254.152 424.434 257.3 421.157 264.461C417.88 271.621 421.029 280.082 428.189 283.359C435.35 286.636 443.811 283.488 447.088 276.327Z" fill="#263238"/>
<path d="M439.271 271.986C440.167 269.13 438.579 266.088 435.722 265.192C432.866 264.296 429.825 265.884 428.928 268.741C428.032 271.597 429.621 274.638 432.477 275.535C435.333 276.431 438.375 274.842 439.271 271.986Z" fill="#455A64"/>
<path d="M439.381 258.483C439.428 258.29 439.486 258.099 439.555 257.913C439.699 257.508 439.887 256.959 440.126 256.279C440.646 254.834 441.376 252.81 442.294 250.317C444.158 245.259 446.709 238.335 449.52 230.682L454.666 216.908L454.767 217.125L444.584 213.512L441.737 212.464L441.014 212.182C440.927 212.157 440.844 212.118 440.769 212.067C440.86 212.078 440.95 212.1 441.036 212.132L441.759 212.37L444.649 213.317L454.875 216.786L455.027 216.836L454.969 216.995C453.524 221.013 451.739 225.747 449.91 230.784L442.561 250.382L440.299 256.301L439.663 257.905C439.593 258.109 439.498 258.303 439.381 258.483Z" fill="#263238"/>
<path d="M471.453 213.259C471.453 213.36 465.31 211.026 457.809 208.056C450.308 205.086 444.266 202.6 444.302 202.498C444.338 202.397 450.452 204.731 457.946 207.709C465.44 210.686 471.496 213.187 471.453 213.259Z" fill="#263238"/>
<path d="M441.246 284.116C441.246 284.116 441.592 283.791 442.236 283.22C443.138 282.414 443.994 281.557 444.801 280.655C447.424 277.648 449.589 274.271 451.226 270.631C452.851 266.98 454.23 263.223 455.352 259.387L456.414 255.911C456.537 255.535 456.631 255.224 456.718 254.964C456.805 254.704 456.833 254.639 456.848 254.646C456.846 254.762 456.827 254.876 456.79 254.986C456.725 255.246 456.646 255.564 456.559 255.947C456.342 256.778 456.024 257.985 455.605 259.466C454.553 263.337 453.202 267.121 451.565 270.783C449.92 274.46 447.703 277.853 444.996 280.835C444.17 281.731 443.279 282.564 442.33 283.329C442.077 283.542 441.815 283.742 441.542 283.929C441.354 284.066 441.253 284.131 441.246 284.116Z" fill="#263238"/>
<path d="M423.099 276.362C423.099 276.362 423.013 276.362 422.854 276.312C422.621 276.239 422.4 276.134 422.196 276.001C421.445 275.496 420.867 274.772 420.541 273.927C420.095 272.672 419.969 271.326 420.173 270.01C420.363 268.422 420.633 266.845 420.982 265.284C421.605 262.447 422.47 259.669 423.569 256.98C423.988 255.947 424.371 255.13 424.639 254.574C424.766 254.277 424.924 253.994 425.108 253.728C425.028 254.04 424.917 254.342 424.776 254.632C424.545 255.21 424.198 256.034 423.815 257.074C422.798 259.775 421.975 262.545 421.351 265.363C420.693 268.644 419.97 271.759 420.787 273.833C421.078 274.643 421.594 275.352 422.276 275.878C422.76 276.239 423.114 276.326 423.099 276.362Z" fill="#263238"/>
<path d="M382.117 201.732L428.989 182.871L431.663 192.959L386.887 212.442L382.117 201.732Z" fill="#E0E0E0"/>
<path d="M466.394 186.267L433.34 199.376L425.593 178.614L463.027 162.947L466.394 186.267Z" fill="#206B8E"/>
<path d="M478.21 171.207L498.871 162.6L495.467 154.058L475.413 162.159L478.21 171.207Z" fill="#E0E0E0"/>
<path opacity="0.4" d="M467.927 192.576C475.119 192.576 480.949 186.746 480.949 179.554C480.949 172.362 475.119 166.531 467.927 166.531C460.735 166.531 454.904 172.362 454.904 179.554C454.904 186.746 460.735 192.576 467.927 192.576Z" fill="black"/>
<path d="M477.769 163.446C479.57 165.389 480.754 167.824 481.172 170.44C481.589 173.057 481.222 175.739 480.115 178.147C479.008 180.555 477.212 182.58 474.954 183.967C472.696 185.355 470.078 186.041 467.43 185.94C464.782 185.839 462.223 184.955 460.078 183.4C457.932 181.844 456.296 179.688 455.376 177.203C454.456 174.718 454.294 172.016 454.909 169.438C455.525 166.861 456.891 164.524 458.835 162.723C461.442 160.308 464.901 159.027 468.452 159.163C472.003 159.298 475.354 160.839 477.769 163.446Z" fill="#263238"/>
<path d="M471.67 169.104C472.337 169.844 472.77 170.764 472.916 171.749C473.062 172.734 472.914 173.74 472.49 174.641C472.067 175.542 471.387 176.299 470.536 176.815C469.684 177.332 468.7 177.585 467.705 177.545C466.71 177.504 465.749 177.17 464.943 176.586C464.137 176.001 463.521 175.192 463.173 174.259C462.824 173.326 462.759 172.311 462.985 171.342C463.211 170.372 463.719 169.49 464.443 168.808C464.934 168.346 465.512 167.986 466.143 167.751C466.774 167.515 467.446 167.408 468.119 167.436C468.792 167.463 469.453 167.625 470.063 167.912C470.673 168.198 471.219 168.603 471.67 169.104Z" fill="#455A64"/>
<path d="M429.69 175.846C429.888 175.998 430.072 176.167 430.239 176.352C430.615 176.75 431.107 177.248 431.685 177.856L436.649 183.138L436.454 183.095L441.014 181.281C444.873 179.756 448.364 178.39 450.9 177.429L453.914 176.302C454.278 176.154 454.652 176.033 455.034 175.94C454.695 176.137 454.34 176.304 453.972 176.439L451.002 177.682C448.487 178.708 445.011 180.11 441.159 181.628L436.584 183.427L436.469 183.471L436.389 183.384L431.526 178.007C430.962 177.371 430.507 176.844 430.145 176.432C429.97 176.256 429.817 176.06 429.69 175.846Z" fill="#263238"/>
<path d="M347.624 210.506L380.722 196.457L390.146 215.976L355.841 230.769L347.624 210.506Z" fill="#206B8E"/>
<path opacity="0.4" d="M365.809 221.964C367.186 216.219 363.645 210.446 357.901 209.07C352.157 207.693 346.384 211.233 345.007 216.977C343.63 222.721 347.171 228.494 352.915 229.871C358.659 231.248 364.432 227.708 365.809 221.964Z" fill="black"/>
<path d="M362.116 224.594C364.036 218.57 360.709 212.131 354.686 210.211C348.662 208.291 342.223 211.617 340.303 217.641C338.383 223.664 341.709 230.104 347.733 232.024C353.756 233.944 360.196 230.617 362.116 224.594Z" fill="#263238"/>
<path d="M349.503 217.104C350.293 216.773 351.163 216.683 352.004 216.846C352.844 217.009 353.618 217.417 354.227 218.019C354.836 218.621 355.253 219.39 355.425 220.229C355.598 221.068 355.518 221.939 355.196 222.732C354.875 223.526 354.325 224.206 353.617 224.688C352.909 225.17 352.074 225.431 351.218 225.439C350.362 225.446 349.522 225.201 348.805 224.732C348.089 224.263 347.527 223.593 347.191 222.805C346.966 222.279 346.848 221.714 346.843 221.142C346.837 220.57 346.945 220.003 347.16 219.473C347.375 218.943 347.693 218.461 348.095 218.054C348.497 217.648 348.976 217.324 349.503 217.104Z" fill="#455A64"/>
<path d="M368.675 225.234C368.586 224.969 368.528 224.695 368.502 224.417L368.133 222.119C367.837 220.095 367.411 217.349 366.984 214.169V214.032L367.114 213.982L371.183 212.327C375.165 210.708 378.778 209.27 381.401 208.244L384.516 207.044C384.89 206.881 385.276 206.75 385.672 206.654C385.319 206.859 384.949 207.035 384.567 207.181L381.503 208.489C378.901 209.573 375.309 211.055 371.327 212.674L367.252 214.314L367.36 214.126C367.765 217.291 368.119 220.038 368.379 222.075C368.487 223.015 368.574 223.788 368.639 224.388C368.68 224.668 368.692 224.951 368.675 225.234Z" fill="#263238"/>
<path d="M330.213 227.961L329.982 226.608L321.797 228.008L322.029 229.362L330.213 227.961Z" fill="#263238"/>
<path d="M345.565 219.611L340.752 220.435L340.332 217.985L338.482 218.303L339.024 221.512L335.65 222.09L335.924 223.694L337.008 230.025L340.383 229.447L340.903 232.482L342.551 232.2L342.219 230.263L347.241 229.403L345.565 219.611Z" fill="#263238"/>
<path d="M335.919 223.707L328.241 225.021L329.107 230.086L336.786 228.772L335.919 223.707Z" fill="#455A64"/>
<path d="M279.137 176.981C279.137 176.981 245.895 175.904 245.895 193.602C245.895 213.642 252.5 251.192 279.137 250.801C305.775 250.411 310.66 197.758 310.935 195.416C310.956 195.395 312.344 178.499 279.137 176.981Z" fill="#206B8E"/>
<path d="M310.161 190.827C310.121 190.87 310.074 190.906 310.024 190.936L309.597 191.218C309.229 191.471 308.665 191.81 307.935 192.229C305.839 193.387 303.643 194.355 301.373 195.12C298.007 196.264 294.536 197.07 291.01 197.526C286.697 198.073 282.35 198.315 278.002 198.249C273.658 198.266 269.315 198.046 264.994 197.592C261.449 197.208 257.98 196.297 254.704 194.889C252.505 193.921 250.467 192.622 248.662 191.037C248.041 190.459 247.578 189.982 247.289 189.649L246.964 189.259L246.855 189.122C246.855 189.122 246.906 189.158 246.993 189.237L247.347 189.599C247.65 189.917 248.127 190.372 248.792 190.921C250.611 192.459 252.65 193.716 254.841 194.65C258.091 196.02 261.524 196.909 265.031 197.288C269.341 197.719 273.671 197.929 278.002 197.917C282.335 197.968 286.667 197.726 290.967 197.194C294.476 196.754 297.934 195.977 301.294 194.874C303.557 194.126 305.755 193.191 307.863 192.078C308.586 191.68 309.178 191.355 309.561 191.131L310.002 190.885C310.053 190.861 310.106 190.841 310.161 190.827Z" fill="#263238"/>
<path d="M290.071 197.505C290.105 197.666 290.122 197.831 290.122 197.996C290.122 198.321 290.122 198.806 290.122 199.442C290.123 201.195 289.939 202.944 289.573 204.659C289.312 205.846 288.932 207.003 288.438 208.114C287.888 209.398 287.158 210.598 286.27 211.676C285.27 212.864 284.069 213.867 282.722 214.639C282.001 215.035 281.243 215.359 280.46 215.608C279.646 215.849 278.807 215.992 277.959 216.034C276.285 216.073 274.631 215.664 273.168 214.849C271.808 214.091 270.61 213.075 269.641 211.857C268.026 209.782 266.967 207.33 266.563 204.731C266.281 203 266.17 201.245 266.23 199.492C266.23 198.878 266.288 198.394 266.317 198.047C266.321 197.879 266.343 197.712 266.382 197.548C266.395 197.714 266.395 197.881 266.382 198.047C266.382 198.408 266.382 198.885 266.382 199.492C266.371 201.229 266.521 202.964 266.83 204.674C267.255 207.213 268.314 209.604 269.909 211.626C270.855 212.802 272.021 213.784 273.341 214.516C274.758 215.295 276.357 215.682 277.974 215.637C278.789 215.598 279.597 215.462 280.38 215.232C281.132 214.992 281.859 214.677 282.548 214.292C283.865 213.542 285.037 212.563 286.01 211.402C286.896 210.359 287.626 209.193 288.178 207.94C288.679 206.852 289.068 205.717 289.341 204.551C289.728 202.856 289.951 201.128 290.006 199.391C290.006 198.806 290.006 198.336 290.042 197.946C290.038 197.798 290.048 197.65 290.071 197.505Z" fill="#263238"/>
<path d="M297.977 238.321C297.934 238.321 297.717 237.598 297.153 236.377C296.342 234.64 295.31 233.015 294.082 231.542C292.248 229.372 290 227.589 287.47 226.296C284.35 224.75 280.894 224.01 277.415 224.142C273.936 224.275 270.546 225.276 267.553 227.055C265.127 228.532 263.021 230.481 261.36 232.785C260.243 234.346 259.337 236.047 258.664 237.844C258.187 239.116 258.028 239.853 257.985 239.846C258.006 239.663 258.042 239.481 258.093 239.304C258.21 238.793 258.355 238.289 258.527 237.793C259.15 235.961 260.031 234.226 261.143 232.641C262.8 230.278 264.922 228.279 267.379 226.766C270.413 224.939 273.86 223.91 277.398 223.777C280.937 223.643 284.451 224.407 287.614 226C290.176 227.322 292.441 229.154 294.27 231.383C295.499 232.882 296.511 234.546 297.276 236.326C297.529 236.962 297.717 237.454 297.818 237.772C297.89 237.949 297.943 238.133 297.977 238.321Z" fill="#263238"/>
<path d="M292.81 220.746L294.342 213.909H307.769C307.292 215.947 306.627 218.325 305.861 220.854L292.81 220.746Z" fill="#FAFAFA"/>
<path d="M262.776 220.746L261.251 213.909H247.817C248.294 215.947 248.699 218.325 249.457 220.854L262.776 220.746Z" fill="#FAFAFA"/>
<path opacity="0.4" d="M309.207 189.151C305.991 183.904 297.486 177.834 279.137 176.981C279.137 176.981 258.577 176.316 249.797 184.634C248.965 185.487 248.215 186.416 247.557 187.409C247.022 188.399 254.415 197.281 278.176 196.522C302.689 195.734 309.207 189.151 309.207 189.151Z" fill="black"/>
<path d="M245.324 157.801C244.146 155.164 243.575 152.143 244.377 149.368C245.179 146.593 247.564 144.172 250.447 143.919" fill="#263238"/>
<path d="M249.486 144.085C249.486 144.136 249.002 144.526 248.315 145.314C247.413 146.328 246.659 147.464 246.075 148.689C245.528 149.937 245.06 151.219 244.673 152.526C244.552 153.083 244.393 153.631 244.196 154.166C244.178 153.59 244.252 153.015 244.413 152.461C244.728 151.112 245.168 149.796 245.728 148.53C246.327 147.27 247.136 146.121 248.12 145.133C248.501 144.696 248.965 144.34 249.486 144.085Z" fill="#206B8E"/>
<path d="M311.773 157.801C312.951 155.164 313.522 152.143 312.719 149.368C311.917 146.593 309.533 144.172 306.656 143.919" fill="#263238"/>
<path d="M307.61 144.085C308.133 144.337 308.598 144.694 308.976 145.133C309.962 146.12 310.772 147.269 311.368 148.53C311.928 149.796 312.368 151.112 312.683 152.461C312.845 153.015 312.918 153.59 312.9 154.166C312.708 153.63 312.548 153.082 312.423 152.526C312.04 151.219 311.574 149.937 311.029 148.689C310.44 147.465 309.683 146.329 308.781 145.314C308.094 144.533 307.574 144.136 307.61 144.085Z" fill="#206B8E"/>
<path d="M247.99 170.896C246.391 169.263 245.216 167.263 244.569 165.071C243.921 162.879 243.821 160.562 244.276 158.322C246.198 148.638 253.244 131.207 279.137 131.583C306.302 131.966 311.404 150.77 312.279 159.825C312.461 161.678 312.276 163.549 311.732 165.33C311.189 167.111 310.299 168.767 309.113 170.202C305.074 175.08 296.496 181.382 279.137 181.375C261.945 181.389 252.702 175.651 247.99 170.896Z" fill="#206B8E"/>
<path d="M267.033 132.718C267.098 132.818 267.149 132.928 267.184 133.043L267.56 133.997C267.885 134.821 268.341 136.02 269.049 137.429C269.851 139.088 270.951 140.584 272.294 141.845C273.918 143.41 276.087 144.283 278.342 144.28C280.591 144.146 282.731 143.269 284.427 141.787C285.809 140.568 286.968 139.118 287.853 137.502C288.461 136.412 289.004 135.288 289.479 134.134C289.64 133.702 289.825 133.28 290.035 132.869C290.026 132.989 289.997 133.107 289.948 133.216C289.876 133.44 289.768 133.773 289.616 134.185C289.189 135.369 288.677 136.521 288.084 137.632C287.216 139.299 286.053 140.795 284.651 142.047C282.905 143.604 280.684 144.523 278.349 144.656C277.139 144.686 275.938 144.439 274.837 143.933C273.82 143.471 272.883 142.849 272.062 142.091C270.698 140.792 269.594 139.244 268.81 137.531C268.275 136.395 267.811 135.227 267.423 134.033C267.278 133.609 267.177 133.284 267.119 133.057C267.08 132.947 267.051 132.833 267.033 132.718Z" fill="#263238"/>
<path d="M296.293 169.827C283.69 172.905 271.39 173.021 259.437 169.957C257.249 169.387 255.312 168.106 253.932 166.315C252.551 164.524 251.806 162.325 251.813 160.063V159.89C251.813 158.546 252.078 157.216 252.592 155.974C253.106 154.732 253.86 153.604 254.81 152.654C255.761 151.704 256.889 150.95 258.13 150.436C259.372 149.922 260.702 149.657 262.046 149.657H293.843C295.187 149.657 296.518 149.922 297.759 150.436C299.001 150.95 300.129 151.704 301.079 152.654C302.03 153.604 302.783 154.732 303.298 155.974C303.812 157.216 304.076 158.546 304.076 159.89C304.078 162.178 303.312 164.401 301.901 166.202C300.49 168.004 298.515 169.28 296.293 169.827Z" fill="#263238"/>
<path d="M268.529 161.834C268.456 162.287 268.251 162.708 267.939 163.044C267.627 163.38 267.222 163.616 266.776 163.722C266.331 163.829 265.863 163.801 265.433 163.642C265.003 163.482 264.63 163.199 264.361 162.828C264.091 162.457 263.938 162.015 263.92 161.556C263.902 161.098 264.021 160.645 264.26 160.254C264.5 159.863 264.85 159.552 265.266 159.36C265.682 159.168 266.146 159.103 266.599 159.175C266.901 159.222 267.19 159.329 267.45 159.488C267.71 159.647 267.937 159.857 268.116 160.104C268.295 160.351 268.424 160.631 268.495 160.928C268.565 161.225 268.577 161.533 268.529 161.834Z" fill="white"/>
<path d="M295.108 160.49C295.035 160.943 294.83 161.364 294.517 161.7C294.205 162.036 293.8 162.272 293.354 162.378C292.908 162.484 292.44 162.455 292.01 162.295C291.58 162.135 291.207 161.852 290.938 161.48C290.669 161.108 290.517 160.665 290.5 160.206C290.483 159.748 290.602 159.295 290.843 158.904C291.084 158.514 291.435 158.203 291.852 158.012C292.269 157.821 292.733 157.758 293.186 157.83C293.487 157.879 293.775 157.986 294.035 158.146C294.294 158.305 294.52 158.515 294.698 158.762C294.877 159.009 295.005 159.289 295.075 159.585C295.146 159.881 295.157 160.189 295.108 160.49Z" fill="white"/>
<path d="M284.904 160.786C285.008 161.476 284.886 162.18 284.557 162.795C284.249 163.487 283.781 164.096 283.191 164.573C282.475 165.148 281.6 165.491 280.684 165.556C279.776 165.628 278.867 165.419 278.082 164.956C277.446 164.568 276.913 164.033 276.528 163.395C276.128 162.828 275.928 162.144 275.958 161.451C276.178 162.06 276.459 162.646 276.796 163.2C277.187 163.76 277.698 164.227 278.292 164.566C279.012 164.966 279.834 165.144 280.655 165.079C281.483 165.022 282.276 164.726 282.939 164.226C283.488 163.801 283.942 163.264 284.268 162.651C284.535 162.049 284.747 161.425 284.904 160.786Z" fill="white"/>
<path d="M63.6668 174.741C63.606 174.777 63.5403 174.803 63.4717 174.82L62.8936 175.015C62.3877 175.189 61.6433 175.463 60.7256 175.883C58.1065 177.056 55.772 178.782 53.8819 180.941C52.5912 182.426 51.5954 184.143 50.9479 186C50.2474 188.152 50.0983 190.445 50.5143 192.67C50.9512 195.135 52.1078 197.416 53.8385 199.225C54.7673 200.143 55.8607 200.879 57.0616 201.393C58.304 201.93 59.6284 202.252 60.9785 202.347C63.6685 202.432 66.3499 202 68.8772 201.075C71.3415 200.244 73.6252 199.131 75.8365 198.184C77.9174 197.224 80.0794 196.45 82.2972 195.872C84.2407 195.357 86.2658 195.227 88.2592 195.489C91.1844 195.796 93.8712 197.242 95.7388 199.514C96.008 199.878 96.2496 200.262 96.4614 200.663C96.6132 201.031 96.7649 201.328 96.8444 201.588C96.9239 201.848 96.9673 202.021 97.0034 202.173C97.0282 202.241 97.0428 202.311 97.0468 202.383L96.9673 202.188L96.7722 201.61C96.6782 201.364 96.5192 201.068 96.3603 200.713C96.1508 200.323 95.9091 199.951 95.6376 199.601C93.7579 197.413 91.1077 196.033 88.2375 195.749C86.277 195.514 84.2897 195.659 82.3839 196.175C80.1886 196.764 78.0486 197.542 75.9883 198.502C73.8203 199.463 71.5077 200.583 69.0073 201.436C66.4365 202.379 63.7082 202.818 60.9713 202.73C59.5762 202.645 58.2055 202.325 56.9171 201.783C55.6691 201.242 54.5378 200.464 53.5856 199.492C51.8055 197.633 50.6204 195.286 50.1819 192.75C49.7628 190.467 49.9294 188.114 50.666 185.913C51.3307 184.017 52.3566 182.267 53.6868 180.761C55.6122 178.577 57.9992 176.849 60.675 175.702C61.6394 175.287 62.6412 174.965 63.6668 174.741Z" fill="#263238"/>
<path d="M156.233 287.441V260.312C156.234 256.656 154.792 253.148 152.221 250.549C149.65 247.95 146.158 246.469 142.503 246.429L63.9849 245.447C62.7348 245.431 61.4942 245.664 60.3348 246.132C59.1755 246.6 58.1206 247.293 57.2312 248.172C56.3419 249.05 55.6358 250.097 55.1539 251.25C54.672 252.404 54.4239 253.642 54.424 254.892V287.115L156.233 287.441Z" fill="#206B8E"/>
<path d="M64.0498 268.326H95.8616V253.454H64.0498V268.326Z" fill="#FAFAFA"/>
<path d="M105.842 286.964C105.733 286.964 105.654 277.851 105.654 266.621C105.654 255.39 105.733 246.27 105.842 246.27C105.95 246.27 106.03 255.376 106.03 266.621C106.03 277.865 105.943 286.964 105.842 286.964Z" fill="#263238"/>
<path d="M105.509 233.934C104.507 233.625 103.475 233.424 102.431 233.335C101.172 233.242 99.9083 233.4 98.7115 233.8C97.5146 234.199 96.4088 234.831 95.4579 235.661C94.507 236.49 93.7299 237.499 93.1716 238.631C92.6133 239.762 92.2848 240.993 92.205 242.252C92.1491 243.299 92.2097 244.348 92.3857 245.381C92.2559 245.125 92.168 244.849 92.1255 244.565C91.9558 243.799 91.895 243.013 91.9449 242.231C92.005 240.929 92.328 239.653 92.8945 238.48C93.4611 237.307 94.2594 236.261 95.2413 235.404C96.2232 234.548 97.3683 233.9 98.6077 233.498C99.8471 233.096 101.155 232.95 102.452 233.067C103.233 233.131 104.001 233.301 104.736 233.573C105.01 233.655 105.27 233.777 105.509 233.934Z" fill="#263238"/>
<path d="M144.49 246.61L105.842 142.604L77.8964 155.865L110.684 253.454L144.49 246.61Z" fill="#206B8E"/>
<path opacity="0.4" d="M151.257 269.867C151.548 261.303 144.842 254.124 136.278 253.832C127.714 253.54 120.535 260.247 120.243 268.811C119.952 277.375 126.658 284.554 135.222 284.845C143.786 285.137 150.965 278.431 151.257 269.867Z" fill="black"/>
<path d="M148.681 269.132C151.914 260.934 147.888 251.668 139.69 248.435C131.492 245.202 122.225 249.228 118.993 257.426C115.76 265.624 119.785 274.891 127.984 278.123C136.182 281.356 145.448 277.331 148.681 269.132Z" fill="#263238"/>
<path d="M128.288 265.739C128.771 266.838 129.57 267.769 130.583 268.414C131.596 269.059 132.777 269.389 133.978 269.363C135.178 269.336 136.344 268.954 137.327 268.265C138.311 267.576 139.068 266.611 139.502 265.492C139.937 264.372 140.03 263.149 139.77 261.977C139.509 260.805 138.907 259.736 138.039 258.906C137.171 258.077 136.077 257.523 134.894 257.315C133.712 257.107 132.494 257.255 131.395 257.739C129.923 258.388 128.768 259.596 128.185 261.096C127.603 262.596 127.639 264.266 128.288 265.739Z" fill="#455A64"/>
<path d="M127.963 249.956C127.931 249.908 127.905 249.857 127.883 249.804L127.695 249.342L126.973 247.542C126.366 245.945 125.527 243.683 124.443 240.908C122.333 235.264 119.435 227.524 116.226 218.975L110.568 203.539L110.51 203.38L110.669 203.329L122.073 199.456L125.289 198.386L126.141 198.119L126.467 198.011C126.467 198.011 126.373 198.061 126.185 198.141L125.354 198.451L122.167 199.608L110.77 203.619L110.864 203.409C112.548 207.904 114.521 213.187 116.646 218.831C119.811 227.394 122.673 235.148 124.754 240.8C125.773 243.596 126.59 245.858 127.175 247.477C127.442 248.243 127.659 248.85 127.818 249.298L127.97 249.775C127.978 249.835 127.976 249.897 127.963 249.956Z" fill="#263238"/>
<path d="M92.0532 199.333C92.0532 199.232 98.7885 196.442 107.179 193.133C115.569 189.823 122.405 187.192 122.449 187.286C122.492 187.38 115.713 190.177 107.316 193.487C98.9186 196.797 92.0966 199.456 92.0532 199.333Z" fill="#263238"/>
<path d="M125.867 278.646C125.749 278.592 125.64 278.521 125.542 278.436C125.339 278.284 125.029 278.068 124.66 277.757C123.603 276.896 122.608 275.961 121.683 274.96C118.657 271.622 116.176 267.827 114.333 263.716C112.514 259.614 111.014 255.379 109.845 251.047C109.376 249.392 109.014 248.041 108.776 247.116L108.508 246.039C108.472 245.914 108.451 245.786 108.443 245.656C108.505 245.77 108.551 245.891 108.581 246.017C108.675 246.299 108.783 246.646 108.92 247.073L110.098 250.968C111.352 255.263 112.895 259.469 114.716 263.557C116.553 267.636 118.989 271.419 121.943 274.78C122.849 275.798 123.815 276.764 124.833 277.67C125.194 277.978 125.539 278.304 125.867 278.646Z" fill="#263238"/>
<path d="M146.181 269.967C146.5 269.807 146.809 269.629 147.106 269.432C147.876 268.845 148.459 268.046 148.783 267.134C149.224 265.765 149.331 264.31 149.093 262.892C148.891 261.273 148.566 259.495 148.161 257.652C147.464 254.496 146.539 251.395 145.393 248.373C144.96 247.21 144.577 246.285 144.316 245.642C144.161 245.315 144.033 244.977 143.933 244.63C144.132 244.93 144.304 245.246 144.447 245.577C144.75 246.205 145.169 247.123 145.646 248.272C146.869 251.283 147.836 254.392 148.537 257.566C148.941 259.43 149.259 261.179 149.447 262.856C149.672 264.327 149.531 265.831 149.035 267.235C148.675 268.18 148.032 268.99 147.193 269.555C146.965 269.698 146.723 269.817 146.47 269.909C146.377 269.943 146.28 269.962 146.181 269.967Z" fill="#263238"/>
<path d="M122.853 120.143C122.853 120.143 122.911 120.049 123.041 119.876L123.612 119.11C124.125 118.445 124.877 117.462 125.823 116.176C127.717 113.603 130.42 109.86 133.462 105.032C137.039 99.3904 140.292 93.549 143.204 87.5366C144.851 84.1473 146.47 80.534 148.031 76.74C149.592 72.946 151.203 69.0002 153.09 65.0544C154.851 61.1817 156.976 57.4844 159.435 54.0121C161.731 50.7916 164.471 47.9111 167.572 45.4557C170.408 43.2332 173.636 41.5637 177.089 40.5344C180.11 39.6545 183.282 39.4254 186.397 39.8623C188.961 40.2163 191.44 41.0265 193.718 42.2543C195.432 43.1848 196.99 44.3771 198.336 45.7881C199.168 46.7009 199.896 47.7045 200.504 48.78L200.937 49.6327C201.031 49.8279 201.067 49.929 201.067 49.929L200.901 49.6472L200.432 48.8161C199.814 47.7778 199.088 46.8087 198.264 45.9255C196.916 44.5431 195.36 43.38 193.653 42.4783C191.4 41.2847 188.953 40.5017 186.426 40.1658C183.35 39.7527 180.222 39.999 177.248 40.8885C173.84 41.9257 170.655 43.5871 167.854 45.7881C164.756 48.1941 162.014 51.0261 159.709 54.2C157.272 57.658 155.163 61.3354 153.408 65.1845C151.558 69.1158 149.968 73.0616 148.349 76.8484C146.73 80.6351 145.155 84.2701 143.5 87.6884C140.57 93.7017 137.296 99.5409 133.693 105.177C130.622 109.99 127.912 113.719 125.946 116.263C124.985 117.535 124.212 118.51 123.684 119.153L123.077 119.876C122.904 120.064 122.853 120.143 122.853 120.143Z" fill="#263238"/>
<path d="M173.18 78.6623L126.647 116.826L135.652 125.39L181.635 89.7697L173.18 78.6623Z" fill="#E0E0E0"/>
<path d="M108.79 157.83L141.397 130.81L124.147 110.835L86.3586 140.963L108.79 157.83Z" fill="#206B8E"/>
<path d="M86.2936 161.552L65.4808 178.202L58.4999 169.762L78.4383 153.451L86.2936 161.552Z" fill="#E0E0E0"/>
<path d="M224.377 62.3861L213.291 69.8975L222.241 83.1073L233.327 75.5959L224.377 62.3861Z" fill="#E0E0E0"/>
<path d="M232.301 74.0878L252.268 74.3696L263.347 90.7236L257.949 107.728L253.143 106.536L255.636 95.2836L247.427 85.412L237.309 85.9684L230.408 90.7525L226.057 99.8147L233.855 111.327L243.163 113.292L243.062 117.773L227.72 116.429L215.911 99.0053L221.216 81.6035L233.378 73.3579" fill="#263238"/>
<path opacity="0.4" d="M101.727 171.708C109.425 167.944 112.613 158.651 108.849 150.954C105.084 143.256 95.7921 140.067 88.0942 143.832C80.3963 147.596 77.2077 156.888 80.9722 164.586C84.7367 172.284 94.0287 175.473 101.727 171.708Z" fill="black"/>
<path d="M107.854 158.661C111.774 150.768 108.553 141.192 100.66 137.273C92.7671 133.353 83.1912 136.574 79.2714 144.466C75.3517 152.359 78.5725 161.935 86.4653 165.855C94.3581 169.775 103.934 166.554 107.854 158.661Z" fill="#263238"/>
<path d="M87.8112 153.502C88.1937 154.64 88.9049 155.638 89.8551 156.372C90.8053 157.106 91.9517 157.541 93.1493 157.624C94.347 157.706 95.5421 157.431 96.5837 156.834C97.6252 156.237 98.4664 155.345 99.0008 154.27C99.5353 153.195 99.739 151.986 99.5862 150.795C99.4335 149.604 98.9311 148.486 98.1426 147.58C97.3541 146.675 96.315 146.024 95.1565 145.709C93.998 145.395 92.7722 145.431 91.6341 145.812C90.8775 146.065 90.1783 146.465 89.5764 146.989C88.9746 147.512 88.482 148.149 88.1269 148.864C87.7717 149.578 87.561 150.355 87.5069 151.151C87.4527 151.947 87.5561 152.746 87.8112 153.502Z" fill="#455A64"/>
<path d="M119.305 114.702C119.426 114.934 119.527 115.176 119.609 115.424L120.367 117.513L122.904 124.848L122.947 124.964L122.853 125.036L117.889 129.177C114.217 132.219 110.886 134.958 108.494 136.931L105.603 139.243L104.808 139.858C104.721 139.935 104.624 140 104.519 140.053C104.519 140.053 104.592 139.952 104.765 139.8L105.488 139.128L108.299 136.721C110.676 134.705 113.979 131.93 117.643 128.888L122.629 124.768L122.571 124.956C121.603 121.993 120.772 119.45 120.165 117.578C119.898 116.711 119.674 116.002 119.5 115.46C119.41 115.215 119.345 114.96 119.305 114.702Z" fill="#263238"/>
<path d="M202.079 47.6526L168.468 74.1817L183.456 95.1968L218.542 67.8367L202.079 47.6526Z" fill="#206B8E"/>
<path opacity="0.4" d="M219.711 61.5926C220.093 54.5666 214.707 48.5613 207.681 48.1796C200.654 47.7978 194.649 53.1841 194.268 60.2102C193.886 67.2363 199.272 73.2415 206.298 73.6233C213.324 74.005 219.329 68.6187 219.711 61.5926Z" fill="black"/>
<path d="M202.65 46.7709C200.537 48.4446 198.968 50.7071 198.141 53.2725C197.314 55.8378 197.266 58.5908 198.004 61.1834C198.741 63.7759 200.231 66.0916 202.284 67.8377C204.337 69.5838 206.862 70.6818 209.54 70.993C212.217 71.3042 214.927 70.8145 217.326 69.5859C219.725 68.3574 221.706 66.445 223.018 64.0907C224.33 61.7364 224.915 59.0458 224.699 56.3591C224.482 53.6725 223.474 51.1104 221.801 48.9968C219.556 46.163 216.278 44.3366 212.686 43.9193C209.095 43.5019 205.485 44.5276 202.65 46.7709Z" fill="#263238"/>
<path d="M207.897 53.3978C207.093 54.0339 206.496 54.894 206.181 55.8694C205.867 56.8447 205.848 57.8915 206.128 58.8774C206.409 59.8633 206.975 60.7439 207.756 61.4079C208.536 62.0719 209.496 62.4894 210.514 62.6077C211.533 62.726 212.563 62.5397 213.475 62.0724C214.387 61.6051 215.14 60.8778 215.639 59.9824C216.138 59.0871 216.36 58.0639 216.277 57.0424C216.194 56.0208 215.81 55.0467 215.174 54.2434C214.752 53.7093 214.229 53.2638 213.635 52.9322C213.041 52.6006 212.387 52.3895 211.711 52.3109C211.035 52.2324 210.35 52.2879 209.696 52.4745C209.041 52.661 208.43 52.9748 207.897 53.3978Z" fill="#455A64"/>
<path d="M205.418 78.048C205.123 77.8926 204.842 77.7112 204.58 77.506L202.347 75.9233L194.614 70.3082H194.838L190.791 73.618C186.824 76.8556 183.225 79.7679 180.602 81.8637L177.487 84.3279L176.627 84.9783C176.531 85.0592 176.427 85.1294 176.316 85.1879C176.316 85.1879 176.396 85.0867 176.584 84.9205L177.393 84.1979L180.435 81.6396C183.008 79.4716 186.585 76.581 190.553 73.3145L194.607 70.0119L194.722 69.9252L194.831 70.0047L202.462 75.7354L204.63 77.4193C204.909 77.6074 205.173 77.8176 205.418 78.048Z" fill="#263238"/>
</g>
</svg>
