<svg width="208" height="203" viewBox="0 0 208 203" fill="none" xmlns="http://www.w3.org/2000/svg">
<g opacity="0.5">
<path d="M105.326 136.084C105.326 136.084 5.69144 132.857 5.69144 185.901C5.69144 245.963 25.4884 358.507 105.326 357.337C185.163 356.168 199.805 198.355 200.628 191.338C200.693 191.273 204.852 140.632 105.326 136.084Z" fill="#C2C2C2"/>
<path d="M198.31 177.584C198.189 177.711 198.05 177.82 197.899 177.909L196.621 178.753C195.516 179.511 193.827 180.529 191.639 181.786C185.355 185.256 178.773 188.155 171.972 190.45C161.883 193.878 151.479 196.294 140.912 197.662C127.983 199.302 114.955 200.025 101.925 199.828C88.9027 199.878 75.8877 199.22 62.9373 197.857C52.3102 196.708 41.9144 193.977 32.094 189.756C25.5034 186.857 19.3965 182.963 13.9864 178.212C12.1237 176.479 10.7375 175.05 9.87113 174.053L8.89641 172.884L8.57153 172.472C8.57153 172.472 8.72316 172.58 8.98307 172.819L10.0444 173.902C10.9541 174.855 12.3836 176.219 14.3763 177.865C19.8273 182.475 25.9382 186.242 32.5055 189.042C42.2469 193.148 52.5352 195.811 63.0455 196.947C75.9646 198.239 88.9413 198.868 101.925 198.832C114.911 198.984 127.893 198.261 140.782 196.666C151.299 195.347 161.664 193.019 171.734 189.713C178.518 187.47 185.104 184.667 191.422 181.331C193.588 180.14 195.364 179.165 196.512 178.493L197.834 177.757C197.986 177.684 198.146 177.626 198.31 177.584Z" fill="#053247"/>
<path d="M138.097 197.597C138.198 198.082 138.249 198.575 138.248 199.07C138.248 200.045 138.248 201.496 138.248 203.402C138.251 208.658 137.699 213.9 136.602 219.04C135.822 222.598 134.682 226.066 133.202 229.394C131.553 233.243 129.365 236.839 126.704 240.072C123.706 243.632 120.107 246.638 116.069 248.952C113.909 250.138 111.638 251.111 109.289 251.855C106.851 252.578 104.335 253.007 101.795 253.133C96.7773 253.25 91.8194 252.023 87.4347 249.58C83.3597 247.31 79.7687 244.264 76.8648 240.613C72.0236 234.395 68.8479 227.044 67.6378 219.257C66.7941 214.068 66.4605 208.808 66.6415 203.554C66.6415 201.713 66.8147 200.261 66.9014 199.222C66.9123 198.718 66.9777 198.217 67.0963 197.727C67.134 198.225 67.134 198.724 67.0963 199.222C67.0963 200.305 67.0963 201.734 67.0963 203.554C67.0625 208.761 67.5121 213.96 68.4392 219.084C69.7125 226.695 72.8862 233.862 77.6662 239.92C80.5037 243.446 83.9976 246.388 87.9545 248.584C92.2016 250.918 96.9942 252.077 101.838 251.941C104.282 251.825 106.704 251.418 109.051 250.728C111.306 250.009 113.482 249.066 115.549 247.913C119.495 245.664 123.008 242.73 125.924 239.249C128.581 236.123 130.77 232.628 132.422 228.874C133.923 225.614 135.091 222.21 135.909 218.715C137.069 213.636 137.736 208.458 137.902 203.25C137.902 201.496 137.902 200.088 138.01 198.919C137.997 198.476 138.026 198.034 138.097 197.597Z" fill="#053247"/>
<path opacity="0.4" d="M195.452 172.559C185.813 156.834 160.32 138.64 105.326 136.084C105.326 136.084 43.7041 134.091 17.3876 159.022C14.8939 161.578 12.6458 164.362 10.6731 167.339C9.07029 170.306 31.2281 196.926 102.445 194.652C175.915 192.291 195.452 172.559 195.452 172.559Z" fill="black"/>
<path d="M3.98063 78.5991C0.450103 70.6933 -1.261 61.6396 1.14322 53.3223C3.54744 45.005 10.6951 37.749 19.3373 36.9909" fill="#053247"/>
<path d="M16.4561 37.4891C16.4561 37.6407 15.0048 38.8103 12.9472 41.1712C10.2439 44.21 7.98345 47.6153 6.23272 51.2863C4.59239 55.0282 3.18896 58.8695 2.03074 62.7876C1.66842 64.4575 1.19076 66.1004 0.601196 67.7043C0.548116 65.9769 0.767372 64.2519 1.25096 62.5926C2.19557 58.5509 3.51533 54.6062 5.19303 50.8098C6.98759 47.0341 9.41203 43.5915 12.3624 40.6297C13.5033 39.3198 14.8953 38.2519 16.4561 37.4891Z" fill="#C2C2C2"/>
<path d="M203.141 78.5991C206.671 70.6933 208.382 61.6396 205.978 53.3223C203.574 45.005 196.426 37.749 187.806 36.9909" fill="#053247"/>
<path d="M190.665 37.4891C192.231 38.2431 193.625 39.3123 194.759 40.6297C197.715 43.5865 200.14 47.0302 201.928 50.8098C203.606 54.6062 204.925 58.5509 205.87 62.5926C206.354 64.2519 206.573 65.9769 206.52 67.7043C205.943 66.0964 205.465 64.4543 205.09 62.7876C203.941 58.8695 202.545 55.028 200.91 51.2863C199.145 47.6185 196.877 44.2142 194.174 41.1712C192.116 38.832 190.557 37.6407 190.665 37.4891Z" fill="#C2C2C2"/>
<path d="M11.9727 117.846C7.17961 112.952 3.65876 106.957 1.71798 100.387C-0.222802 93.8175 -0.524428 86.8721 0.839574 80.1586C6.60104 51.1347 27.7193 -1.10838 105.326 0.017918C186.744 1.16588 202.036 57.5243 204.657 84.6639C205.204 90.2177 204.648 95.825 203.02 101.163C201.392 106.501 198.724 111.464 195.17 115.767C183.062 130.387 157.352 149.275 105.326 149.253C53.7975 149.296 26.0948 132.098 11.9727 117.846Z" fill="#C2C2C2"/>
<path d="M69.0457 3.41846C69.2424 3.72036 69.3955 4.04851 69.5005 4.39317L70.6268 7.25223C71.6015 9.72143 72.9661 13.3169 75.0887 17.5406C77.4926 22.5103 80.7891 26.996 84.8139 30.7746C89.6836 35.4638 96.1827 38.0805 102.943 38.0739C109.682 37.6702 116.096 35.042 121.18 30.6013C125.321 26.9472 128.795 22.6011 131.447 17.7572C133.27 14.4923 134.898 11.1219 136.321 7.66376C136.804 6.36942 137.36 5.10386 137.988 3.87332C137.962 4.23228 137.874 4.58402 137.728 4.91298C137.512 5.58443 137.187 6.58076 136.732 7.81536C135.451 11.365 133.917 14.8178 132.14 18.147C129.54 23.1444 126.054 27.6284 121.852 31.3811C116.62 36.0453 109.963 38.8013 102.965 39.2002C99.3367 39.2894 95.7362 38.5485 92.4381 37.0343C89.3893 35.6478 86.5815 33.7832 84.1208 31.511C80.0316 27.6172 76.7234 22.9784 74.374 17.8438C72.7688 14.4402 71.3798 10.9389 70.2153 7.36053C69.7821 6.08983 69.4789 5.11513 69.3056 4.43646C69.1872 4.10604 69.1002 3.7652 69.0457 3.41846Z" fill="#053247"/>
<path d="M156.746 114.641C118.972 123.868 82.107 124.214 46.2819 115.031C39.7228 113.324 33.9176 109.485 29.7806 104.116C25.6436 98.748 23.4098 92.156 23.431 85.3786V84.8587C23.431 80.8311 24.2243 76.8429 25.7656 73.1218C27.3069 69.4008 29.5661 66.0197 32.4141 63.1717C35.2621 60.3237 38.6431 58.0646 42.3641 56.5233C46.0852 54.982 50.0734 54.1887 54.101 54.1887H149.404C153.431 54.1887 157.419 54.982 161.14 56.5233C164.862 58.0646 168.243 60.3237 171.091 63.1717C173.939 66.0197 176.198 69.4008 177.739 73.1218C179.28 76.8429 180.074 80.8311 180.074 84.8587C180.078 91.7172 177.782 98.379 173.553 103.778C169.324 109.178 163.406 113.002 156.746 114.641Z" fill="#053247"/>
<path d="M73.5299 90.6852C73.312 92.0421 72.6969 93.3039 71.7622 94.3113C70.8276 95.3187 69.6154 96.0266 68.2787 96.3455C66.942 96.6644 65.5408 96.5801 64.252 96.1031C62.9632 95.6261 61.8447 94.7779 61.0376 93.6656C60.2306 92.5533 59.7713 91.2268 59.7178 89.8537C59.6642 88.4805 60.0187 87.1222 60.7366 85.9504C61.4545 84.7786 62.5035 83.8459 63.7512 83.2699C64.9989 82.694 66.3894 82.5007 67.7469 82.7145C68.6506 82.8568 69.5173 83.1761 70.2974 83.654C71.0775 84.1319 71.7555 84.759 72.2928 85.4995C72.83 86.24 73.2158 87.0792 73.4282 87.9691C73.6405 88.8589 73.675 89.782 73.5299 90.6852Z" fill="white"/>
<path d="M153.194 86.6565C152.975 88.0139 152.359 89.2761 151.423 90.2833C150.487 91.2905 149.273 91.9976 147.936 92.3152C146.598 92.6328 145.196 92.5466 143.907 92.0674C142.618 91.5883 141.501 90.7378 140.695 89.6235C139.89 88.5091 139.433 87.1809 139.382 85.8069C139.331 84.4328 139.689 83.0746 140.41 81.9039C141.131 80.7332 142.183 79.8026 143.433 79.2298C144.683 78.657 146.075 78.4676 147.433 78.6857C148.334 78.8305 149.199 79.1517 149.976 79.6307C150.754 80.1097 151.43 80.7372 151.965 81.4774C152.5 82.2176 152.884 83.056 153.095 83.9446C153.306 84.8333 153.339 85.7548 153.194 86.6565Z" fill="white"/>
<path d="M122.61 87.5445C122.921 89.6112 122.557 91.7231 121.571 93.5659C120.645 95.6399 119.243 97.4656 117.477 98.8941C115.33 100.619 112.708 101.647 109.961 101.84C107.239 102.057 104.516 101.429 102.164 100.042C100.257 98.8803 98.6598 97.2754 97.5069 95.3636C96.3077 93.6643 95.7059 91.6152 95.7958 89.5372C96.4568 91.3636 97.2985 93.1195 98.3083 94.7788C99.4803 96.4594 101.012 97.8578 102.792 98.8725C104.95 100.071 107.414 100.606 109.875 100.41C112.356 100.24 114.734 99.3521 116.719 97.8545C118.367 96.581 119.726 94.9715 120.704 93.1327C121.503 91.3296 122.141 89.4597 122.61 87.5445Z" fill="white"/>
</g>
</svg>
