<svg width="31" height="30" viewBox="0 0 31 30" fill="none" xmlns="http://www.w3.org/2000/svg">
<g clip-path="url(#clip0_79_284)">
<path d="M30.3837 14.9021C30.3837 6.75701 23.7807 0.153992 15.6356 0.153992C7.49047 0.153992 0.887451 6.75701 0.887451 14.9021C0.887451 22.2633 6.28066 28.3647 13.3312 29.4711V19.1653H9.58654V14.9021H13.3312V11.6529C13.3312 7.95668 15.533 5.91498 18.9018 5.91498C20.5154 5.91498 22.2031 6.20303 22.2031 6.20303V9.83245H20.3435C18.5114 9.83245 17.94 10.9693 17.94 12.1357V14.9021H22.0303L21.3764 19.1653H17.94V29.4711C24.9905 28.3647 30.3837 22.2634 30.3837 14.9021Z" fill="#1877F2"/>
<path d="M21.3763 19.1652L22.0302 14.9021H17.9399V12.1357C17.9399 10.9692 18.5112 9.83244 20.3433 9.83244H22.203V6.20301C22.203 6.20301 20.5153 5.91496 18.9016 5.91496C15.5329 5.91496 13.3311 7.95666 13.3311 11.6529V14.9021H9.58643V19.1652H13.3311V29.4711C14.0934 29.5905 14.8638 29.6504 15.6355 29.6502C16.4071 29.6504 17.1775 29.5905 17.9399 29.4711V19.1652H21.3763Z" fill="white"/>
</g>
<defs>
<clipPath id="clip0_79_284">
<rect width="29.4963" height="29.4963" fill="white" transform="translate(0.887451 0.153992)"/>
</clipPath>
</defs>
</svg>
