<svg width="30" height="30" viewBox="0 0 30 30" fill="none" xmlns="http://www.w3.org/2000/svg">
<g clip-path="url(#clip0_79_279)">
<path d="M22.9742 0.153992H7.3043C3.48625 0.153992 0.391113 3.24913 0.391113 7.06718V22.7371C0.391113 26.5551 3.48625 29.6503 7.3043 29.6503H22.9742C26.7922 29.6503 29.8874 26.5551 29.8874 22.7371V7.06718C29.8874 3.24913 26.7922 0.153992 22.9742 0.153992Z" fill="url(#paint0_radial_79_279)"/>
<path d="M22.9742 0.153992H7.3043C3.48625 0.153992 0.391113 3.24913 0.391113 7.06718V22.7371C0.391113 26.5551 3.48625 29.6503 7.3043 29.6503H22.9742C26.7922 29.6503 29.8874 26.5551 29.8874 22.7371V7.06718C29.8874 3.24913 26.7922 0.153992 22.9742 0.153992Z" fill="url(#paint1_radial_79_279)"/>
<path d="M15.1402 3.38013C12.0111 3.38013 11.6183 3.39384 10.3893 3.44972C9.16272 3.50595 8.32541 3.70009 7.59285 3.98503C6.83493 4.2793 6.19212 4.67301 5.55173 5.31363C4.91076 5.95414 4.51705 6.59695 4.22186 7.35452C3.93612 8.08732 3.74174 8.92496 3.68655 10.151C3.63159 11.3801 3.61719 11.773 3.61719 14.9022C3.61719 18.0315 3.63101 18.423 3.68678 19.6519C3.74324 20.8786 3.93738 21.7159 4.22209 22.4484C4.51659 23.2063 4.9103 23.8492 5.55092 24.4895C6.1912 25.1305 6.83401 25.5251 7.59135 25.8194C8.32449 26.1043 9.16191 26.2985 10.3883 26.3547C11.6174 26.4106 12.0098 26.4243 15.1388 26.4243C18.2683 26.4243 18.6598 26.4106 19.8888 26.3547C21.1154 26.2985 21.9536 26.1043 22.6868 25.8194C23.4443 25.5251 24.0862 25.1305 24.7264 24.4895C25.3673 23.8492 25.7609 23.2063 26.0562 22.4488C26.3394 21.7159 26.5339 20.8783 26.5915 19.6522C26.6467 18.4232 26.6611 18.0315 26.6611 14.9022C26.6611 11.773 26.6467 11.3803 26.5915 10.1512C26.5339 8.92462 26.3394 8.08743 26.0562 7.35486C25.7609 6.59695 25.3673 5.95414 24.7264 5.31363C24.0855 4.67278 23.4446 4.27907 22.6861 3.98515C21.9515 3.70009 21.1138 3.50583 19.8871 3.44972C18.6581 3.39384 18.2668 3.38013 15.1366 3.38013H15.1402ZM14.1066 5.4565C14.4134 5.45604 14.7557 5.4565 15.1402 5.4565C18.2167 5.4565 18.5812 5.46756 19.7961 5.52275C20.9195 5.57414 21.5293 5.76184 21.9354 5.91957C22.4731 6.12835 22.8565 6.37803 23.2595 6.78142C23.6628 7.18468 23.9123 7.56871 24.1217 8.10644C24.2794 8.51202 24.4674 9.12176 24.5185 10.2452C24.5737 11.4598 24.5857 11.8246 24.5857 14.8996C24.5857 17.9746 24.5737 18.3395 24.5185 19.554C24.4671 20.6774 24.2794 21.2871 24.1217 21.6928C23.9129 22.2305 23.6628 22.6134 23.2595 23.0165C22.8562 23.4197 22.4734 23.6693 21.9354 23.8782C21.5297 24.0366 20.9195 24.2238 19.7961 24.2752C18.5815 24.3304 18.2167 24.3424 15.1402 24.3424C12.0636 24.3424 11.6989 24.3304 10.4844 24.2752C9.36101 24.2234 8.75127 24.0357 8.34477 23.878C7.80715 23.6691 7.42301 23.4195 7.01974 23.0162C6.61647 22.613 6.36691 22.2299 6.15755 21.6919C5.99982 21.2862 5.81189 20.6765 5.76074 19.5531C5.70555 18.3384 5.69448 17.9736 5.69448 14.8967C5.69448 11.8197 5.70555 11.4569 5.76074 10.2423C5.81212 9.11888 5.99982 8.50914 6.15755 8.10299C6.36645 7.56526 6.61647 7.18123 7.01986 6.77796C7.42324 6.37469 7.80715 6.12501 8.34488 5.91577C8.75103 5.75734 9.36101 5.57011 10.4844 5.51849C11.5473 5.47044 11.9592 5.45604 14.1066 5.45362V5.4565ZM21.2906 7.36961C20.5273 7.36961 19.908 7.98834 19.908 8.75179C19.908 9.51512 20.5273 10.1344 21.2906 10.1344C22.054 10.1344 22.6733 9.51512 22.6733 8.75179C22.6733 7.98846 22.054 7.36915 21.2906 7.36915V7.36961ZM15.1402 8.98511C11.8726 8.98511 9.22321 11.6345 9.22321 14.9022C9.22321 18.17 11.8726 20.8181 15.1402 20.8181C18.408 20.8181 21.0564 18.17 21.0564 14.9022C21.0564 11.6346 18.4077 8.98511 15.14 8.98511H15.1402ZM15.1402 11.0615C17.2613 11.0615 18.9809 12.7809 18.9809 14.9022C18.9809 17.0233 17.2613 18.743 15.1402 18.743C13.0191 18.743 11.2996 17.0233 11.2996 14.9022C11.2996 12.7809 13.019 11.0615 15.1402 11.0615Z" fill="white"/>
</g>
<defs>
<radialGradient id="paint0_radial_79_279" cx="0" cy="0" r="1" gradientUnits="userSpaceOnUse" gradientTransform="translate(8.22606 31.922) rotate(-90) scale(29.233 27.189)">
<stop stop-color="#FFDD55"/>
<stop offset="0.1" stop-color="#FFDD55"/>
<stop offset="0.5" stop-color="#FF543E"/>
<stop offset="1" stop-color="#C837AB"/>
</radialGradient>
<radialGradient id="paint1_radial_79_279" cx="0" cy="0" r="1" gradientUnits="userSpaceOnUse" gradientTransform="translate(-4.54963 2.27876) rotate(78.681) scale(13.0673 53.8639)">
<stop stop-color="#3771C8"/>
<stop offset="0.128" stop-color="#3771C8"/>
<stop offset="1" stop-color="#6600FF" stop-opacity="0"/>
</radialGradient>
<clipPath id="clip0_79_279">
<rect width="29.4963" height="29.4963" fill="white" transform="translate(0.391113 0.153992)"/>
</clipPath>
</defs>
</svg>
