<svg width="30" height="30" viewBox="0 0 30 30" fill="none" xmlns="http://www.w3.org/2000/svg">
<g clip-path="url(#clip0_79_276)">
<path d="M26.6573 1.0056H2.96486C2.42729 1.00013 1.90951 1.20813 1.52513 1.58397C1.14075 1.95981 0.92116 2.47279 0.914551 3.01034V26.7985C0.922355 27.3352 1.14247 27.847 1.52672 28.2219C1.91097 28.5967 2.42807 28.8041 2.96486 28.7986H26.6573C27.1949 28.8029 27.7123 28.5942 28.0965 28.2181C28.4807 27.8421 28.7004 27.3292 28.7076 26.7916V3.00351C28.698 2.46753 28.4773 1.957 28.0933 1.58289C27.7094 1.20877 27.1933 1.00131 26.6573 1.0056Z" fill="#0076B2"/>
<path d="M5.02898 11.4234H9.15465V24.698H5.02898V11.4234ZM7.09295 4.81688C7.56615 4.81688 8.02871 4.95723 8.42213 5.22017C8.81554 5.48311 9.12213 5.85682 9.30311 6.29404C9.48409 6.73126 9.53133 7.21233 9.43885 7.6764C9.34637 8.14047 9.11832 8.56669 8.78356 8.90113C8.4488 9.23557 8.02237 9.46321 7.55822 9.55524C7.09406 9.64728 6.61303 9.59959 6.17599 9.41819C5.73894 9.2368 5.36551 8.92985 5.10295 8.53618C4.84038 8.14252 4.70048 7.67982 4.70093 7.20663C4.70153 6.57262 4.95382 5.96478 5.40234 5.51668C5.85087 5.06858 6.45894 4.81688 7.09295 4.81688ZM11.7426 11.4234H15.6974V13.2459H15.7521C16.3034 12.2025 17.6475 11.1022 19.6545 11.1022C23.8326 11.0931 24.6071 13.8428 24.6071 17.408V24.698H20.4815V18.2396C20.4815 16.7018 20.4541 14.7221 18.3377 14.7221C16.2214 14.7221 15.8614 16.3988 15.8614 18.1393V24.698H11.7426V11.4234Z" fill="white"/>
</g>
<defs>
<clipPath id="clip0_79_276">
<rect width="29.1599" height="29.1599" fill="white" transform="translate(0.231201 0.322144)"/>
</clipPath>
</defs>
</svg>
